<svg xmlns="http://www.w3.org/2000/svg" viewBox="0 0 18 18"><defs><style>.cls-1{isolation:isolate;}.cls-2{fill:#00f5d0;mix-blend-mode:multiply;}</style></defs><title>estrella solitaria</title><g class="cls-1"><g id="Capa_1" data-name="Capa 1"><path class="cls-2" d="M7.25,14.79l1.65,3a.17.17,0,0,0,.29,0l1.64-3a10.21,10.21,0,0,1,4.05-4.06l3-1.65a.17.17,0,0,0,0-.29l-3-1.64a10.21,10.21,0,0,1-4.06-4L9.16.08a.17.17,0,0,0-.29,0l-1.64,3A10.21,10.21,0,0,1,3.18,7.16l-3,1.65a.17.17,0,0,0,0,.29l3,1.64A10.21,10.21,0,0,1,7.25,14.79Z"/></g></g></svg>